<svg width="294" height="70" viewBox="0 0 294 70" fill="none" xmlns="http://www.w3.org/2000/svg">
<path d="M23.808 69.96C19.328 69.96 15.264 68.904 11.616 66.792C8.032 64.68 5.184 61.832 3.072 58.248C1.024 54.6 0 50.568 0 46.152C0 41.672 1.024 37.64 3.072 34.056C5.184 30.472 8.032 27.656 11.616 25.608C15.264 23.496 19.328 22.44 23.808 22.44C27.328 22.44 30.592 23.112 33.6 24.456C36.608 25.736 39.2 27.624 41.376 30.12L35.616 35.88C34.208 34.216 32.48 32.968 30.432 32.136C28.448 31.24 26.24 30.792 23.808 30.792C20.928 30.792 18.368 31.464 16.128 32.808C13.888 34.088 12.128 35.88 10.848 38.184C9.568 40.488 8.928 43.144 8.928 46.152C8.928 49.16 9.568 51.816 10.848 54.12C12.128 56.424 13.888 58.248 16.128 59.592C18.368 60.936 20.928 61.608 23.808 61.608C26.24 61.608 28.448 61.192 30.432 60.36C32.48 59.464 34.24 58.184 35.712 56.52L41.376 62.28C39.264 64.712 36.672 66.6 33.6 67.944C30.592 69.288 27.328 69.96 23.808 69.96Z" fill="#4E5EF0"/>
<path d="M98.8995 69.96C95.1875 69.96 91.8275 69.128 88.8195 67.464C85.8755 65.736 83.5715 63.368 81.9075 60.36C80.2435 57.352 79.4115 53.864 79.4115 49.896V23.4H88.0515V49.512C88.0515 52.008 88.4675 54.184 89.2995 56.04C90.1955 57.832 91.4755 59.208 93.1395 60.168C94.8035 61.128 96.7555 61.608 98.9955 61.608C102.388 61.608 105.044 60.552 106.964 58.44C108.883 56.264 109.844 53.288 109.844 49.512V23.4H118.484V49.896C118.484 53.864 117.652 57.352 115.988 60.36C114.324 63.368 112.02 65.736 109.076 67.464C106.196 69.128 102.803 69.96 98.8995 69.96Z" fill="#4E5EF0"/>
<path d="M186.689 69.96C182.209 69.96 178.145 68.904 174.497 66.792C170.913 64.68 168.065 61.832 165.953 58.248C163.905 54.6 162.881 50.568 162.881 46.152C162.881 41.672 163.905 37.64 165.953 34.056C168.065 30.472 170.913 27.656 174.497 25.608C178.145 23.496 182.209 22.44 186.689 22.44C190.209 22.44 193.473 23.112 196.481 24.456C199.489 25.736 202.081 27.624 204.257 30.12L198.497 35.88C197.089 34.216 195.361 32.968 193.313 32.136C191.329 31.24 189.121 30.792 186.689 30.792C183.809 30.792 181.249 31.464 179.009 32.808C176.769 34.088 175.009 35.88 173.729 38.184C172.449 40.488 171.809 43.144 171.809 46.152C171.809 49.16 172.449 51.816 173.729 54.12C175.009 56.424 176.769 58.248 179.009 59.592C181.249 60.936 183.809 61.608 186.689 61.608C189.121 61.608 191.329 61.192 193.313 60.36C195.361 59.464 197.121 58.184 198.593 56.52L204.257 62.28C202.145 64.712 199.553 66.6 196.481 67.944C193.473 69.288 190.209 69.96 186.689 69.96Z" fill="#4E5EF0"/>
<path d="M98.8995 69.96C95.1875 69.96 91.8275 69.128 88.8195 67.464C85.8755 65.736 83.5715 63.368 81.9075 60.36C80.2435 57.352 79.4115 53.864 79.4115 49.896V23.4H88.0515V49.512C88.0515 52.008 88.4675 54.184 89.2995 56.04C90.1955 57.832 91.4755 59.208 93.1395 60.168C94.8035 61.128 96.7555 61.608 98.9955 61.608C102.388 61.608 105.044 60.552 106.964 58.44C108.883 56.264 109.844 53.288 109.844 49.512V23.4H118.484V49.896C118.484 53.864 117.652 57.352 115.988 60.36C114.324 63.368 112.02 65.736 109.076 67.464C106.196 69.128 102.803 69.96 98.8995 69.96Z" fill="#4E5EF0"/>
<path fill-rule="evenodd" clip-rule="evenodd" d="M278.351 25.8682C276.378 25.3028 274.295 25 272.14 25C259.714 25 249.64 35.0736 249.64 47.5C249.64 59.9264 259.714 70 272.14 70C282.692 70 291.547 62.7364 293.979 52.9365L278.351 25.8682ZM280 47.5C280 51.6421 276.642 55 272.5 55C268.358 55 265 51.6421 265 47.5C265 43.3579 268.358 40 272.5 40C276.642 40 280 43.3579 280 47.5Z" fill="#2FA87B"/>
<path d="M141.224 23C144.936 23 148.296 23.832 151.304 25.496C154.248 27.224 156.552 29.592 158.216 32.6C159.88 35.608 160.712 39.096 160.712 43.064L160.712 69.56L152.072 69.56L152.072 43.448C152.072 40.952 151.656 38.776 150.824 36.92C149.928 35.128 148.648 33.752 146.984 32.792C145.32 31.832 143.368 31.352 141.128 31.352C137.736 31.352 135.08 32.408 133.16 34.52C131.24 36.696 130.28 39.672 130.28 43.448L130.28 69.56L121.64 69.56L121.64 43.064C121.64 39.096 122.472 35.608 124.136 32.6C125.8 29.592 128.104 27.224 131.048 25.496C133.928 23.832 137.32 23 141.224 23Z" fill="#4E5EF0"/>
<path fill-rule="evenodd" clip-rule="evenodd" d="M63.2285 23C66.9405 23 70.3005 23.832 73.3085 25.496C75.0891 26.5411 76.6356 27.8204 77.9479 29.3337L72.4288 35.04C71.4688 34.016 70.4128 33.28 69.2608 32.832C69.085 32.7636 68.9047 32.7005 68.7199 32.6425C67.1156 31.7822 65.2531 31.352 63.1325 31.352C59.7405 31.352 57.0845 32.408 55.1645 34.52C53.2445 36.696 52.2845 39.672 52.2845 43.448L52.2845 69.56H43.6445V69.5586H43.6406L43.6445 24H51.6445L51.6442 27.9956C53.6466 25.497 58.6433 23 63.2285 23Z" fill="#4E5EF0"/>
<path d="M226.675 21.9903C230.478 21.9903 233.92 22.8427 237.002 24.5474C240.018 26.3178 242.378 28.7438 244.083 31.8255C245.788 34.9072 246.64 38.4806 246.64 42.5458L246.64 69.691L237.788 69.691L237.788 42.9393C237.788 40.3821 237.362 38.1528 236.51 36.2513C235.592 34.4154 234.281 33.0057 232.576 32.0222C230.871 31.0387 228.871 30.5469 226.576 30.5469C223.101 30.5469 220.38 31.6288 218.413 33.7925C216.446 36.0218 215.463 39.0707 215.463 42.9393L215.463 69.691L206.611 69.691L206.611 42.5458C206.611 38.4806 207.463 34.9072 209.168 31.8255C210.873 28.7438 213.233 26.3178 216.249 24.5474C219.2 22.8426 222.675 21.9903 226.675 21.9903Z" fill="#4E5EF0"/>
<path d="M206.64 0H214.861V69.666H206.64V0Z" fill="#4E5EF0"/>
</svg>
