<svg width="1632" height="378" viewBox="0 0 1632 378" fill="none" xmlns="http://www.w3.org/2000/svg">
<path d="M678.288 377.266C659.334 377.266 641.904 373.712 625.997 366.605C610.09 359.497 596.382 349.851 584.875 337.667C573.368 325.483 564.568 311.268 558.476 295.022C552.722 278.438 550.184 260.839 550.861 242.224C551.538 224.286 555.091 207.364 561.522 191.456C568.291 175.211 577.26 160.827 588.429 148.304C599.936 135.781 613.305 125.966 628.535 118.859C643.766 111.413 660.18 107.69 677.78 107.69C694.702 107.69 709.425 110.905 721.948 117.336C734.809 123.428 745.978 131.043 755.454 140.181C758.162 142.889 760.362 146.273 762.054 150.335C763.746 154.058 765.1 158.119 766.116 162.519C767.469 166.58 768.654 170.642 769.669 174.703C770.685 178.765 771.869 182.657 773.223 186.38L786.423 181.811C783.715 174.703 780.5 167.088 776.777 158.965C773.054 150.504 771.192 142.381 771.192 134.597V0.57017L851.405 0.0625V368.128L771.192 369.143V350.867C771.192 343.082 772.885 335.129 776.269 327.006C779.992 318.545 783.207 310.591 785.915 303.145L772.715 299.084C770.346 306.191 768.315 314.314 766.623 323.452C764.931 332.59 761.377 340.036 755.962 345.79C746.824 355.605 735.824 363.22 722.963 368.635C710.102 374.389 695.21 377.266 678.288 377.266ZM630.566 244.255C630.566 261.516 635.981 275.731 646.812 286.9C657.98 297.73 673.042 303.145 691.995 303.145C710.948 303.145 725.671 297.73 736.163 286.9C746.993 275.731 752.408 261.516 752.408 244.255C752.408 235.455 751.054 227.332 748.347 219.886C745.639 212.44 741.578 205.841 736.163 200.087C731.086 194.333 724.825 189.933 717.379 186.887C709.933 183.503 701.471 181.811 691.995 181.811C682.518 181.811 674.057 183.503 666.611 186.887C659.165 189.933 652.734 194.333 647.319 200.087C641.904 205.841 637.673 212.44 634.627 219.886C631.92 227.332 630.566 235.455 630.566 244.255Z" fill="#1D1A1D"/>
<path d="M882.416 114.797H964.684V368.635H882.416V114.797Z" fill="#1D1A1D"/>
<path d="M1001.64 114.797H1083.37V368.635H1001.64V114.797Z" fill="#1D1A1D"/>
<path d="M1113.22 114.797H1193.43V116.828C1193.09 129.012 1190.56 141.873 1185.82 155.411C1181.08 168.611 1176.51 180.964 1172.11 192.472L1185.31 197.549C1187.34 191.795 1189.37 185.703 1191.4 179.272C1193.77 172.503 1196.14 165.903 1198.51 159.473C1201.22 152.704 1204.26 146.612 1207.65 141.197C1211.37 135.443 1215.6 130.705 1220.34 126.982C1230.15 119.874 1240.82 114.797 1252.32 111.751C1263.83 108.705 1277.2 107.182 1292.43 107.182C1305.29 107.182 1317.14 109.044 1327.97 112.767C1338.8 116.49 1348.27 122.074 1356.4 129.52C1364.52 136.627 1370.95 145.596 1375.69 156.427C1380.43 167.257 1382.8 179.949 1382.8 194.503V368.635H1302.58V252.378C1302.58 230.378 1298.86 214.302 1291.41 204.148C1283.97 193.995 1272.29 188.918 1256.38 188.918C1247.92 188.918 1239.8 190.272 1232.02 192.979C1224.57 195.349 1217.97 199.241 1212.22 204.656C1206.46 209.733 1201.89 216.333 1198.51 224.455C1195.12 232.24 1193.43 241.547 1193.43 252.378V368.635H1113.22V114.797Z" fill="#1D1A1D"/>
<path d="M1412.81 368.635V114.797H1493.02C1492.68 126.982 1489.81 139.843 1484.39 153.381C1479.31 166.58 1474.24 178.595 1469.16 189.426L1481.85 195.518C1484.56 189.764 1487.27 183.841 1489.97 177.749C1493.02 171.319 1496.07 165.057 1499.11 158.965C1502.5 152.873 1506.22 147.119 1510.28 141.704C1514.68 136.289 1519.42 131.889 1524.5 128.505C1539.73 119.705 1555.8 113.951 1572.73 111.244C1589.65 108.536 1609.28 107.182 1631.62 107.182V181.303C1615.03 181.303 1598.45 182.995 1581.86 186.38C1565.28 189.764 1550.39 195.179 1537.19 202.625C1523.99 210.071 1513.33 219.886 1505.2 232.071C1497.08 243.916 1493.02 258.639 1493.02 276.238V368.635H1412.81Z" fill="#1D1A1D"/>
<path d="M118.017 370.319H65.4591C32.0283 370.319 6.98553 339.686 13.6317 306.923L66.2117 47.7201C71.2124 23.0684 92.8853 5.35049 118.039 5.35049H201.726L118.017 370.319Z" fill="#4E5EF0"/>
<path d="M223.708 5.35059H323.978L238.537 370.319H138.266L223.708 5.35059Z" fill="#4E5EF0"/>
<path d="M344.228 5.35059H396.786C430.217 5.35059 455.26 35.9834 448.613 68.7469L396.033 327.949C391.033 352.601 369.36 370.319 344.206 370.319H260.52L344.228 5.35059Z" fill="#4E5EF0"/>
</svg>
